<?xml version="1.0" encoding="UTF-8"?>
<svg xmlns="http://www.w3.org/2000/svg" version="1.1" viewBox="0 0 564.41 218.41">
  <!-- Generator: Adobe Illustrator 30.2.1, SVG Export Plug-In . SVG Version: 2.1.1 Build 1)  -->
  <defs>
    <style>
      .st0 {
        stroke-linecap: round;
      }

      .st0, .st1 {
        fill: none;
        stroke: #000;
        stroke-miterlimit: 10;
        stroke-width: .75px;
      }

      .st2 {
        font-family: Arial-BoldMT, Arial;
        font-size: 15px;
        font-weight: 700;
      }
    </style>
  </defs>
  <g id="lines">
    <line class="st1" x1="62.75" y1="41.92" x2="62.75" y2="164.9"/>
    <line class="st1" x1="120.31" y1="41.92" x2="120.31" y2="99.98"/>
    <line class="st1" x1="435.82" y1="41.92" x2="435.82" y2="99.98"/>
    <line class="st1" x1="392.94" y1="100.97" x2="392.94" y2="164.9"/>
    <line class="st1" x1="158.25" y1="100.97" x2="158.25" y2="164.9"/>
    <line class="st1" x1="488.44" y1="41.92" x2="488.44" y2="164.9"/>
    <line class="st1" x1="62.75" y1="100.3" x2="488.44" y2="100.3"/>
    <g>
      <line class="st0" x1="122.58" y1="54.2" x2="433.53" y2="54.2"/>
      <path d="M129.8,59.28c.16-.25.08-.57-.16-.73l-6.82-4.35,6.82-4.35c.25-.16.32-.48.16-.73-.16-.25-.49-.32-.73-.16l-7.52,4.79c-.15.1-.24.27-.24.45s.09.35.24.45l7.52,4.79c.09.06.19.08.28.08.17,0,.35-.09.45-.24Z"/>
      <path d="M426.3,59.28c-.16-.25-.08-.57.16-.73l6.82-4.35-6.82-4.35c-.25-.16-.32-.48-.16-.73.16-.25.49-.32.73-.16l7.52,4.79c.15.1.24.27.24.45s-.09.35-.24.45l-7.52,4.79c-.09.06-.19.08-.28.08-.17,0-.35-.09-.45-.24Z"/>
    </g>
    <g>
      <line class="st0" x1="160.26" y1="123.37" x2="391.67" y2="123.37"/>
      <path d="M167.49,128.45c.16-.25.08-.57-.16-.73l-6.82-4.35,6.82-4.35c.25-.16.32-.48.16-.73-.16-.25-.49-.32-.73-.16l-7.52,4.79c-.15.1-.24.27-.24.45s.09.35.24.45l7.52,4.79c.09.06.19.08.28.08.17,0,.35-.09.45-.24Z"/>
      <path d="M384.44,128.45c-.16-.25-.08-.57.16-.73l6.82-4.35-6.82-4.35c-.25-.16-.32-.48-.16-.73.16-.25.49-.32.73-.16l7.52,4.79c.15.1.24.27.24.45s-.09.35-.24.45l-7.52,4.79c-.09.06-.19.08-.28.08-.17,0-.35-.09-.45-.24Z"/>
    </g>
  </g>
  <g id="texts">
    <text class="st2" transform="translate(70.24 11.21)"><tspan x="0" y="0">Minimum dead load</tspan></text>
    <text class="st2" transform="translate(121.57 194.13)"><tspan x="0" y="0">Minimum load</tspan></text>
    <text class="st2" transform="translate(360.72 11.21)"><tspan x="0" y="0">Maximum capacity</tspan></text>
    <text class="st2" transform="translate(347.17 194.13)"><tspan x="0" y="0">Maximum load</tspan></text>
    <text class="st2" transform="translate(0 103.86)"><tspan x="0" y="0">No Load</tspan></text>
    <text class="st2" transform="translate(493.2 78.85)"><tspan x="0" y="0">Safe load</tspan><tspan x="17.93" y="18">limit</tspan></text>
    <text class="st2" transform="translate(515.22 128.03)"><tspan x="0" y="0">E</tspan></text>
    <text class="st2" transform="translate(525.23 133.02) scale(.58)"><tspan x="0" y="0">lim</tspan></text>
    <text class="st2" transform="translate(419.29 29.16)"><tspan x="0" y="0">E</tspan></text>
    <text class="st2" transform="translate(429.3 34.15) scale(.58)"><tspan x="0" y="0">max</tspan></text>
    <text class="st2" transform="translate(384.75 212.27)"><tspan x="0" y="0">D</tspan></text>
    <text class="st2" transform="translate(395.58 217.26) scale(.58)"><tspan x="0" y="0">max</tspan></text>
    <text class="st2" transform="translate(106.89 29.16)"><tspan x="0" y="0">E</tspan></text>
    <text class="st2" transform="translate(116.9 34.15) scale(.58)"><tspan x="0" y="0">min</tspan></text>
    <text class="st2" transform="translate(157.78 212.27)"><tspan x="0" y="0">D</tspan></text>
    <text class="st2" transform="translate(168.61 217.26) scale(.58)"><tspan x="0" y="0">min</tspan></text>
    <text class="st2" transform="translate(183.43 85.78)"><tspan x="0" y="0">Maximum measuring range</tspan></text>
    <text class="st2" transform="translate(183.87 143.1)"><tspan x="0" y="0">Load cell measuring range</tspan></text>
  </g>
</svg>